<svg id="visual" viewBox="0 0 900 600" width="900" height="600" xmlns="http://www.w3.org/2000/svg" xmlns:xlink="http://www.w3.org/1999/xlink" version="1.1"><path d="M0 289L50 255C100 221 200 153 300 164C400 175 500 265 600 298C700 331 800 307 850 295L900 283L900 0L850 0C800 0 700 0 600 0C500 0 400 0 300 0C200 0 100 0 50 0L0 0Z" fill="#fdae60"></path><path d="M0 373L50 370C100 367 200 361 300 381C400 401 500 447 600 445C700 443 800 393 850 368L900 343L900 281L850 293C800 305 700 329 600 296C500 263 400 173 300 162C200 151 100 219 50 253L0 287Z" fill="#f99430"></path><path d="M0 565L50 535C100 505 200 445 300 443C400 441 500 497 600 515C700 533 800 513 850 503L900 493L900 341L850 366C800 391 700 441 600 443C500 445 400 399 300 379C200 359 100 365 50 368L0 371Z" fill="#e17b0e"></path><path d="M0 601L50 601C100 601 200 601 300 601C400 601 500 601 600 601C700 601 800 601 850 601L900 601L900 491L850 501C800 511 700 531 600 513C500 495 400 439 300 441C200 443 100 503 50 533L0 563Z" fill="#b5630d"></path></svg>